<?xml version="1.0" encoding="UTF-8"?>
<svg version="1.1" xmlns="http://www.w3.org/2000/svg"
    viewBox="0 0 300 300">
    <path
        d="M0 0 C1.13888672 -0.00515625 2.27777344 -0.0103125 3.45117188 -0.015625 C4.63130859 -0.00015625 5.81144531 0.0153125 7.02734375 0.03125 C8.80334961 0.00804687 8.80334961 0.00804687 10.61523438 -0.015625 C12.32163086 -0.00789063 12.32163086 -0.00789063 14.0625 0 C15.09898682 0.00451172 16.13547363 0.00902344 17.20336914 0.01367188 C20.64525724 0.65877865 21.82665879 1.81043544 23.96484375 4.53125 C24.57421875 7.046875 24.57421875 7.046875 24.71484375 9.78125 C24.76898438 10.74804688 24.823125 11.71484375 24.87890625 12.7109375 C24.90726563 13.64164063 24.935625 14.57234375 24.96484375 15.53125 C24.99320313 16.29695313 25.0215625 17.06265625 25.05078125 17.8515625 C25.10280266 20.58788857 25.07465427 23.1068472 24.38671875 25.765625 C23.82370458 29.45649565 24.41387722 32.77832982 25.08984375 36.40625 C25.22672607 37.15148926 25.3636084 37.89672852 25.50463867 38.66455078 C27.86687142 51.27395466 27.86687142 51.27395466 33.44165039 62.61645508 C39.98588424 72.29693434 38.8224253 83.23990783 38.77734375 94.46875 C38.79154586 97.563606 38.81393709 100.65828578 38.83952332 103.75306702 C38.85249813 105.66842343 38.8573308 107.5838569 38.85298157 109.49925232 C38.85356064 110.36437943 38.85413971 111.22950653 38.85473633 112.12084961 C38.85218338 112.87820908 38.84963043 113.63556854 38.84700012 114.4158783 C38.96730308 116.57539656 39.39898959 118.44923788 39.96484375 120.53125 C40.75254017 129.54519184 38.63493612 138.0578634 36.7421875 146.81054688 C34.48604193 157.73673758 34.03574037 166.40164065 37.96484375 176.90625 C40.69311615 184.88563689 43.39429156 193.28237179 40.1796875 201.55078125 C37.51121692 205.48175404 33.63856955 206.68811993 29.3046875 207.92041016 C22.6131765 209.1442523 15.82531917 208.97166721 9.04223633 208.92236328 C6.40458626 208.90626369 3.76846326 208.92228074 1.13085938 208.94140625 C-0.57161791 208.93942391 -2.27409426 208.93558043 -3.9765625 208.9296875 C-4.75181778 208.93576019 -5.52707306 208.94183289 -6.32582092 208.9480896 C-13.32882877 208.85953764 -19.62820032 207.58719152 -25.03515625 202.96875 C-28.99101791 198.1475436 -28.5858128 193.58112993 -28.03515625 187.53125 C-26.72811474 182.12963771 -24.9271826 176.92216288 -22.98583984 171.71875 C-20.11268682 162.08549733 -22.44904776 151.79793465 -24.53515625 142.21875 C-28.0593591 125.75024531 -28.0593591 125.75024531 -26.52148438 119.4152832 C-25.81497848 115.22554719 -25.9808199 111.10670524 -26.03515625 106.8671875 C-26.03631667 104.91927074 -26.03492663 102.97135113 -26.03125 101.0234375 C-26.02687676 97.98646835 -26.03436197 94.95257547 -26.08642578 91.91601562 C-26.29662559 78.48977934 -24.78597186 68.56327254 -18.21289062 56.75073242 C-13.32364839 47.87141743 -10.92491688 35.60712821 -11.03515625 25.53125 C-11.36515625 24.87125 -11.69515625 24.21125 -12.03515625 23.53125 C-12.24162952 19.5293122 -12.14283207 15.53576503 -12.03515625 11.53125 C-12.01839844 10.80292969 -12.00164062 10.07460938 -11.984375 9.32421875 C-11.73589727 6.06561076 -11.20249002 4.69709895 -8.86157227 2.37695312 C-5.59307293 0.24256123 -3.86664199 0.01681279 0 0 Z M-4.03515625 8.53125 C-4.07396114 10.24831921 -4.04654158 11.9669464 -3.9921875 13.68359375 C-3.59233206 31.45922709 -5.12309699 46.48811109 -11.984375 62.9296875 C-12.8786017 65.14364654 -13.63249651 67.17971711 -14.03515625 69.53125 C-11.94074506 71.62566119 -7.36849943 70.69539502 -4.4765625 70.69921875 C-3.61707504 70.70254715 -2.75758759 70.70587555 -1.87205505 70.70930481 C-0.05036964 70.7143777 1.77132511 70.71671302 3.59301758 70.71655273 C6.38703665 70.71873803 9.18066032 70.73688644 11.97460938 70.75585938 C13.74088406 70.7587934 15.50716063 70.76077814 17.2734375 70.76171875 C18.11305527 70.76890427 18.95267303 70.77608978 19.81773376 70.78349304 C24.36727135 70.97037131 24.36727135 70.97037131 27.96484375 68.53125 C27.66191406 68.02980469 27.35898438 67.52835938 27.046875 67.01171875 C20.71172492 55.56946306 16.75180084 40.61208838 16.90234375 27.51171875 C16.91007812 26.40763672 16.9178125 25.30355469 16.92578125 24.16601562 C16.94511719 22.45961914 16.94511719 22.45961914 16.96484375 20.71875 C16.99021754 18.44145231 17.01129643 16.16410125 17.02734375 13.88671875 C17.03894531 12.88278076 17.05054688 11.87884277 17.0625 10.84448242 C17.22776199 8.56861738 17.22776199 8.56861738 15.96484375 7.53125 C14.5613564 7.43264869 13.15303898 7.40046063 11.74609375 7.3984375 C10.89660156 7.39714844 10.04710937 7.39585938 9.171875 7.39453125 C8.27855469 7.39839844 7.38523437 7.40226562 6.46484375 7.40625 C5.12486328 7.40044922 5.12486328 7.40044922 3.7578125 7.39453125 C2.48357422 7.39646484 2.48357422 7.39646484 1.18359375 7.3984375 C0.39919922 7.39956543 -0.38519531 7.40069336 -1.19335938 7.40185547 C-3.05268613 7.33017558 -3.05268613 7.33017558 -4.03515625 8.53125 Z M-18.03515625 76.53125 C-18.03515625 89.40125 -18.03515625 102.27125 -18.03515625 115.53125 C-2.46559951 118.64516135 15.40478029 118.64326269 30.96484375 115.53125 C30.96484375 102.66125 30.96484375 89.79125 30.96484375 76.53125 C26.01484375 76.86125 21.06484375 77.19125 15.96484375 77.53125 C12.78732459 77.61409943 9.63943194 77.673472 6.46484375 77.65625 C5.75199219 77.66011719 5.03914063 77.66398437 4.3046875 77.66796875 C-3.19684702 77.6549226 -10.50162532 77.0334854 -18.03515625 76.53125 Z M26.51025391 123.02514648 C21.40196656 123.53923966 16.36862598 123.66106699 11.23828125 123.62890625 C10.36458893 123.6274913 9.49089661 123.62607635 8.59072876 123.62461853 C5.84039672 123.61908674 3.09015057 123.60654774 0.33984375 123.59375 C-1.54166548 123.58872616 -3.423176 123.58416481 -5.3046875 123.58007812 C-9.88154277 123.56913979 -14.45833502 123.55192362 -19.03515625 123.53125 C-19.29569092 130.39109175 -18.60847413 136.43283718 -17.03515625 143.09375 C-13.97637762 157.49740162 -13.80654014 169.06993736 -18.89990234 183.02563477 C-20.60044077 187.70388156 -21.44929651 191.46450272 -21.03515625 196.53125 C-19.50660746 199.30174468 -17.90693169 199.57463184 -14.90625 200.58984375 C-8.78835433 202.06031924 -2.50784017 201.82905109 3.74584961 201.79199219 C5.89400577 201.78129153 8.04132269 201.79192001 10.18945312 201.8046875 C21.89777441 201.93917115 21.89777441 201.93917115 32.96484375 198.53125 C35.33986771 189.70973245 31.73242203 181.56932691 28.21484375 173.46875 C23.91977753 162.07030502 28.0394393 146.73054952 31.05859375 135.296875 C31.81090282 132.1709011 32.18917321 129.70979275 32.08984375 126.53125 C32.07179687 125.768125 32.05375 125.005 32.03515625 124.21875 C32.01195312 123.661875 31.98875 123.105 31.96484375 122.53125 C30.13958951 122.53125 28.32241515 122.82412922 26.51025391 123.02514648 Z "
        fill="currentColor" transform="translate(143.03515625,44.46875)" />
    <path
        d="M0 0 C14.06688399 6.53105328 14.06688399 6.53105328 17.390625 12.57421875 C17.70096368 15.73967326 17.81724719 17.72097438 16.390625 20.57421875 C16.75220703 22.37197754 16.75220703 22.37197754 17.12109375 24.20605469 C18.02010694 31.60378555 15.00548866 38.54612348 12.703125 45.46484375 C12.20128655 47.01544134 11.70099049 48.56653887 11.20214844 50.11810303 C9.88549499 54.19881057 8.5477103 58.27228205 7.2053833 62.34460449 C5.86729965 66.41689353 4.54970819 70.49579437 3.23046875 74.57421875 C1.70036541 79.30251521 0.16448335 84.02856389 -1.40039062 88.7454834 C-3.56641794 95.27687975 -5.70729635 101.79628895 -7.60546875 108.41210938 C-7.8984082 109.39693298 -8.19134766 110.38175659 -8.49316406 111.39642334 C-9.00502861 113.13170169 -9.49048851 114.87514711 -9.94042969 116.62750244 C-10.96078816 120.00689092 -11.65883763 121.96363734 -14.69511414 123.91400146 C-16.97224827 124.93457567 -19.25054676 125.76506742 -21.609375 126.57421875 C-22.77082031 127.1671875 -23.93226563 127.76015625 -25.12890625 128.37109375 C-29.55089182 129.89968136 -32.75024822 129.54273747 -37.296875 128.82421875 C-38.04259766 128.72367188 -38.78832031 128.623125 -39.55664062 128.51953125 C-42.96328721 128.04545733 -46.28397002 127.44400398 -49.609375 126.57421875 C-49.06213817 123.1995916 -48.554475 121.49186875 -46.609375 118.57421875 C-46.06410156 118.71859375 -45.51882812 118.86296875 -44.95703125 119.01171875 C-35.22792423 121.41208964 -35.22792423 121.41208964 -25.796875 119.13671875 C-25.075 118.62109375 -24.353125 118.10546875 -23.609375 117.57421875 C-22.94013 117.46263931 -22.27088501 117.35105988 -21.58135986 117.23609924 C-19.45498339 116.76690573 -19.45498339 116.76690573 -18.59686279 114.78355408 C-18.35703674 114.00411942 -18.11721069 113.22468475 -17.87011719 112.42163086 C-17.59012878 111.5407933 -17.31014038 110.65995575 -17.02166748 109.75242615 C-16.73607971 108.79514114 -16.45049194 107.83785614 -16.15625 106.8515625 C-15.85116516 105.87635147 -15.54608032 104.90114044 -15.23175049 103.89637756 C-14.25853287 100.77279147 -13.30878496 97.64261388 -12.359375 94.51171875 C-11.70465531 92.3960102 -11.04842441 90.28076867 -10.390625 88.16601562 C-8.77928406 82.97404692 -7.18716658 77.77647453 -5.609375 72.57421875 C-9.50080771 70.62850239 -13.5031549 71.58568428 -17.609375 72.57421875 C-22.43135613 74.50379188 -26.99190127 77.02627492 -31.56347656 79.47802734 C-34.76755954 81.19477347 -37.99661829 82.85960572 -41.234375 84.51171875 C-42.31976563 85.07761719 -43.40515625 85.64351563 -44.5234375 86.2265625 C-47.6013673 87.57072172 -50.28648172 88.18006174 -53.609375 88.57421875 C-53.609375 85.93421875 -53.609375 83.29421875 -53.609375 80.57421875 C-52.64 80.08953125 -51.670625 79.60484375 -50.671875 79.10546875 C-50.0315332 78.78521729 -49.39119141 78.46496582 -48.73144531 78.13500977 C-47.30397062 77.42143665 -45.87623146 76.70839238 -44.44824219 75.99584961 C-40.66752067 74.10838691 -36.8915625 72.21245527 -33.125 70.296875 C-32.05185547 69.75353516 -32.05185547 69.75353516 -30.95703125 69.19921875 C-29.58298857 68.50324182 -28.21052514 67.80413613 -26.83984375 67.1015625 C-21.16793396 64.23649102 -17.32510023 63.4349056 -10.984375 63.44921875 C-9.83710938 63.44664062 -8.68984375 63.4440625 -7.5078125 63.44140625 C-4.609375 63.57421875 -4.609375 63.57421875 -2.609375 64.57421875 C-2.12967377 62.82436521 -1.65063576 61.07432984 -1.171875 59.32421875 C-0.90503906 58.3496875 -0.63820312 57.37515625 -0.36328125 56.37109375 C0.24607084 54.11049222 0.83300755 51.84799866 1.390625 49.57421875 C-12.11004315 46.87994224 -22.69951591 53.97901153 -34.1796875 60.328125 C-39.99853946 63.46436107 -45.07858791 65.48350998 -51.609375 66.57421875 C-51.60617729 63.51081199 -51.60307596 61.4120059 -50.609375 58.57421875 C-48.24987491 56.52876105 -45.56830073 55.55349253 -42.671875 54.44921875 C-41.10626393 53.78943248 -39.54244452 53.12537822 -37.98046875 52.45703125 C-37.22362793 52.14024414 -36.46678711 51.82345703 -35.68701172 51.49707031 C-33.04876866 50.32520677 -30.65811396 48.88766787 -28.234375 47.32421875 C-17.38414135 40.67231671 -8.01337803 40.05072038 4.390625 40.57421875 C5.09449302 38.53813701 5.77805355 36.49502851 6.453125 34.44921875 C6.83597656 33.31226563 7.21882813 32.1753125 7.61328125 31.00390625 C8.42487284 27.42311521 8.24541727 25.11166098 7.390625 21.57421875 C6.565625 21.48785156 5.740625 21.40148437 4.890625 21.3125 C-11.1121712 19.36573127 -26.35079797 14.09957885 -40.609375 6.57421875 C-44.37581985 9.77094925 -45.53882692 12.60797561 -46.859375 17.32421875 C-47.19453125 18.4946875 -47.5296875 19.66515625 -47.875 20.87109375 C-48.11734375 21.763125 -48.3596875 22.65515625 -48.609375 23.57421875 C-49.269375 23.57421875 -49.929375 23.57421875 -50.609375 23.57421875 C-50.75521564 20.34553129 -50.84361606 17.1176951 -50.921875 13.88671875 C-50.96376953 12.97470703 -51.00566406 12.06269531 -51.04882812 11.12304688 C-51.17363127 4.25887366 -51.17363127 4.25887366 -48.15625 0.59765625 C-46.89554688 -0.40394531 -46.89554688 -0.40394531 -45.609375 -1.42578125 C-45.25875 -2.31265625 -44.908125 -3.19953125 -44.546875 -4.11328125 C-43.609375 -6.42578125 -43.609375 -6.42578125 -41.84375 -7.546875 C-29.42471251 -12.4319859 -11.5442549 -4.87560553 0 0 Z M-33.609375 -0.42578125 C-26.44073441 8.14099846 -7.79789569 12.34394444 2.703125 13.32421875 C4.26477241 13.42223942 5.82715964 13.51155481 7.390625 13.57421875 C3.3424599 9.96968819 -0.70653746 7.99441716 -5.671875 6.01171875 C-6.42194824 5.7087085 -7.17202148 5.40569824 -7.94482422 5.09350586 C-16.25870721 1.81217733 -24.57392174 -1.04183488 -33.609375 -0.42578125 Z "
        fill="currentColor" transform="translate(236.609375,124.42578125)" />
    <path
        d="M0 0 C2.87360928 2.25299938 4.73158329 4.66644366 6.06420898 8.02539062 C6.25952148 10.60351562 6.25952148 10.60351562 6.18920898 13.27539062 C6.17116211 14.16742188 6.15311523 15.05945313 6.13452148 15.97851562 C6.11131836 16.65398437 6.08811523 17.32945312 6.06420898 18.02539062 C-0.53859774 20.35448775 -7.19209025 22.17648022 -13.99047852 23.83789062 C-16.08953968 24.3609156 -18.18849504 24.88436538 -20.28735352 25.40820312 C-23.56489131 26.22240628 -26.84313611 27.03331479 -30.12329102 27.83691406 C-33.31060326 28.61951305 -36.49442335 29.41516663 -39.67797852 30.21289062 C-40.6623288 30.45048096 -41.64667908 30.68807129 -42.66085815 30.93286133 C-43.57255768 31.16320068 -44.4842572 31.39354004 -45.42358398 31.63085938 C-46.22472626 31.82832764 -47.02586853 32.0257959 -47.85128784 32.22924805 C-50.22680412 33.13653842 -51.39693038 34.00804917 -52.93579102 36.02539062 C-53.18627737 39.1508808 -53.18627737 39.1508808 -52.93579102 42.02539062 C-51.86772217 41.72608643 -50.79965332 41.42678223 -49.69921875 41.1184082 C-38.98914452 38.1254145 -28.25994798 35.21204196 -17.50732422 32.37573242 C-14.94673968 31.69927168 -12.38758098 31.0175707 -9.82836914 30.3359375 C-8.18847975 29.90267459 -6.54850898 29.46971955 -4.90844727 29.03710938 C-4.14919449 28.83405685 -3.38994171 28.63100433 -2.60768127 28.42179871 C0.36779275 27.64212448 2.9738789 27.02539062 6.06420898 27.02539062 C6.06420898 29.66539062 6.06420898 32.30539063 6.06420898 35.02539062 C-1.0190525 36.88018919 -8.10329115 38.73121814 -15.18823242 40.57958984 C-17.59991942 41.20924852 -20.01137871 41.83978002 -22.42260742 42.47119141 C-25.88214018 43.37695481 -29.34247123 44.27960863 -32.80297852 45.18164062 C-33.88634491 45.46599976 -34.9697113 45.75035889 -36.08590698 46.04333496 C-37.08679352 46.30360474 -38.08768005 46.56387451 -39.11889648 46.83203125 C-40.00269989 47.06297485 -40.8865033 47.29391846 -41.79708862 47.53186035 C-43.93579102 48.02539062 -43.93579102 48.02539062 -45.93579102 48.02539062 C-43.32063395 55.14713343 -40.70358381 62.2681783 -38.08429623 69.38840294 C-36.8673267 72.69676289 -35.65094375 76.00533573 -34.43603516 79.31445312 C-33.03022843 83.14325131 -31.62241612 86.97130755 -30.21313477 90.79882812 C-29.75723969 92.03711365 -29.3013446 93.27539917 -28.83163452 94.5512085 C-25.93571475 102.39027777 -22.97751114 110.20082159 -19.86790466 117.95785522 C-17.93579102 122.8195398 -17.93579102 122.8195398 -17.93579102 125.02539062 C-17.37593506 124.87392578 -16.8160791 124.72246094 -16.23925781 124.56640625 C-13.7016277 123.88219612 -11.16249537 123.20373403 -8.62329102 122.52539062 C-7.30167969 122.16767578 -7.30167969 122.16767578 -5.95336914 121.80273438 C-4.68203125 121.46435547 -4.68203125 121.46435547 -3.38500977 121.11914062 C-2.60472412 120.90966797 -1.82443848 120.70019531 -1.02050781 120.484375 C1.06420898 120.02539062 1.06420898 120.02539062 4.06420898 120.02539062 C4.55920898 123.49039063 4.55920898 123.49039063 5.06420898 127.02539062 C-11.96261744 133.71450101 -11.96261744 133.71450101 -19.93579102 132.02539062 C-25.0871499 128.80892475 -26.56004549 125.08220718 -28.58032227 119.62304688 C-29.08001274 118.32549217 -29.08001274 118.32549217 -29.58979797 117.00172424 C-33.49147005 106.77344601 -37.14982376 96.45132678 -40.85961914 86.15234375 C-41.0864784 85.5227947 -41.31333767 84.89324566 -41.54707146 84.24461937 C-42.71452827 81.00118947 -43.87541864 77.75560356 -45.02587891 74.50610352 C-45.94160148 71.9209697 -46.86630583 69.33941119 -47.8014679 66.76124573 C-48.67225673 64.36003268 -49.52995838 61.95402185 -50.37272644 59.54283142 C-50.76696304 58.46642899 -51.16119965 57.39002655 -51.56738281 56.28100586 C-51.90521286 55.33539291 -52.24304291 54.38977997 -52.59111023 53.41551208 C-54.24433213 50.47696995 -56.04073795 49.65577837 -58.93579102 48.02539062 C-61.02688461 42.94702046 -61.44981537 38.42264633 -60.93579102 33.02539062 C-60.00766602 31.66414063 -60.00766602 31.66414063 -59.06079102 30.27539062 C-56.80184411 26.82053066 -56.50364965 24.98122771 -55.99829102 20.96289062 C-55.44202072 17.21270169 -55.08017143 15.2489474 -52.99829102 12.02539062 C-45.04927645 6.83419744 -35.00973657 4.75688043 -25.93579102 2.27539062 C-24.83750977 1.95957031 -23.73922852 1.64375 -22.60766602 1.31835938 C-6.26544433 -3.15445249 -6.26544433 -3.15445249 0 0 Z M-18.34594727 7.85351562 C-19.03587265 8.04379333 -19.72579803 8.23407104 -20.43663025 8.43011475 C-21.88741394 8.83305264 -23.33707695 9.24004533 -24.78564453 9.65087891 C-26.99141773 10.27345066 -29.20229958 10.87461812 -31.41430664 11.47460938 C-32.82938118 11.87045655 -34.24410762 12.26755069 -35.65844727 12.66601562 C-36.31377945 12.8422345 -36.96911163 13.01845337 -37.64430237 13.20001221 C-41.84155713 14.41598425 -44.76792527 16.01287392 -47.93579102 19.02539062 C-48.80544608 21.15485665 -48.80544608 21.15485665 -48.93579102 23.02539062 C-45.69375201 24.10607029 -44.86504251 23.97027423 -41.6796875 23.14501953 C-40.82547714 22.92794342 -39.97126678 22.71086731 -39.09117126 22.48721313 C-38.17235672 22.24457733 -37.25354218 22.00194153 -36.30688477 21.75195312 C-35.36144302 21.50875336 -34.41600128 21.26555359 -33.44190979 21.01498413 C-31.44285938 20.49919531 -29.44482741 19.97944561 -27.44775391 19.45605469 C-24.38399716 18.65319617 -21.3174958 17.86165538 -18.25024414 17.07226562 C-16.31062098 16.57031806 -14.37116205 16.06773533 -12.43188477 15.56445312 C-11.51104599 15.32586578 -10.59020721 15.08727844 -9.64146423 14.84146118 C-8.79040604 14.61808075 -7.93934784 14.39470032 -7.0625 14.16455078 C-6.31209946 13.96834137 -5.56169891 13.77213196 -4.78855896 13.56997681 C-2.86611674 13.06423392 -2.86611674 13.06423392 -0.93579102 12.02539062 C-2.05433688 8.29924909 -2.05433688 8.29924909 -4.93579102 6.02539062 C-9.67370853 5.71077517 -13.82093083 6.57688643 -18.34594727 7.85351562 Z "
        fill="currentColor" transform="translate(105.935791015625,120.974609375)" />
    <path
        d="M0 0 C4.95893049 2.65618739 8.21934292 5.9509975 9.99609375 11.28125 C10.72463055 18.1127754 10.26530624 22.80790065 5.99609375 28.28125 C1.02727468 32.23602436 -3.03955546 32.92856807 -9.3515625 32.66015625 C-14.91460942 31.86543526 -17.90287267 29.66459988 -21.44140625 25.21875 C-23.80537215 20.47035097 -23.77612705 15.4449891 -23.00390625 10.28125 C-20.81864283 5.82978749 -18.06445415 3.09239855 -14.00390625 0.28125 C-9.41328016 -1.2489587 -4.62850487 -1.6601265 0 0 Z M-13.75390625 9.46875 C-15.73994384 12.34850451 -15.88481573 14.82762478 -16.00390625 18.28125 C-14.78783413 21.16142082 -13.70087081 22.73363499 -11.25390625 24.65625 C-7.86278538 25.59822802 -5.39399422 25.12877199 -2.00390625 24.28125 C0.95936369 22.17576873 1.82831702 20.80695041 2.93359375 17.34375 C3.0085529 13.67075179 2.17483575 12.18623934 -0.00390625 9.28125 C-4.43518591 4.84997034 -8.9803325 6.22953924 -13.75390625 9.46875 Z "
        fill="currentColor" transform="translate(104.00390625,180.71875)" />
    <path
        d="M0 0 C0.98484375 -0.00128906 1.9696875 -0.00257813 2.984375 -0.00390625 C4.02078125 -0.00003906 5.0571875 0.00382813 6.125 0.0078125 C7.67960938 0.00201172 7.67960938 0.00201172 9.265625 -0.00390625 C10.25046875 -0.00261719 11.2353125 -0.00132812 12.25 0 C13.16007812 0.00112793 14.07015625 0.00225586 15.0078125 0.00341797 C17.125 0.1328125 17.125 0.1328125 18.125 1.1328125 C18.16563832 2.79898365 18.167721 4.46669345 18.125 6.1328125 C13.87308023 8.19335823 10.32194786 8.40160029 5.625 8.3828125 C3.69140625 8.39054688 3.69140625 8.39054688 1.71875 8.3984375 C-1.6273621 8.15111617 -3.88189053 7.5833194 -6.875 6.1328125 C-5.87784038 0.57720891 -5.66909016 0.00702614 0 0 Z "
        fill="currentColor" transform="translate(143.875,144.8671875)" />
    <path
        d="M0 0 C0.98484375 -0.00128906 1.9696875 -0.00257813 2.984375 -0.00390625 C4.02078125 -0.00003906 5.0571875 0.00382813 6.125 0.0078125 C7.67960938 0.00201172 7.67960938 0.00201172 9.265625 -0.00390625 C10.25046875 -0.00261719 11.2353125 -0.00132812 12.25 0 C13.16007812 0.00112793 14.07015625 0.00225586 15.0078125 0.00341797 C17.125 0.1328125 17.125 0.1328125 18.125 1.1328125 C18.16563832 2.79898365 18.167721 4.46669345 18.125 6.1328125 C13.87308023 8.19335823 10.32194786 8.40160029 5.625 8.3828125 C3.69140625 8.39054688 3.69140625 8.39054688 1.71875 8.3984375 C-1.6273621 8.15111617 -3.88189053 7.5833194 -6.875 6.1328125 C-5.87784038 0.57720891 -5.66909016 0.00702614 0 0 Z "
        fill="currentColor" transform="translate(143.875,131.8671875)" />
    <path
        d="M0 0 C0.598125 0.226875 1.19625 0.45375 1.8125 0.6875 C2.96197895 4.24043493 2.8993937 5.48726669 1.375 9 C0.6015625 10.3303125 0.6015625 10.3303125 -0.1875 11.6875 C-1.85361905 11.730221 -3.52132885 11.72813832 -5.1875 11.6875 C-5.5175 11.3575 -5.8475 11.0275 -6.1875 10.6875 C-5.72596154 3.53365385 -5.72596154 3.53365385 -3.875 0.625 C-2.1875 -0.3125 -2.1875 -0.3125 0 0 Z "
        fill="currentColor" transform="translate(234.1875,106.3125)" />
    <path
        d="M0 0 C2.00720923 0.28674418 4.0085944 0.61866701 6 1 C7.7578125 6.95703125 7.7578125 6.95703125 8 9 C7.01 10.485 7.01 10.485 6 12 C3.625 11.75 3.625 11.75 1 11 C-1.41407042 7.89619518 -1.25445414 4.81681205 -1 1 C-0.67 0.67 -0.34 0.34 0 0 Z "
        fill="currentColor" transform="translate(70,108)" />
    <path
        d="M0 0 C6.12605042 0.45378151 6.12605042 0.45378151 9 2.25 C10 4 10 4 9.6875 6.6875 C9.460625 7.450625 9.23375 8.21375 9 9 C2.375 8.25 2.375 8.25 -1 6 C-1.25 3.4375 -1.25 3.4375 -1 1 C-0.67 0.67 -0.34 0.34 0 0 Z "
        fill="currentColor" transform="translate(57,115)" />
    <path
        d="M0 0 C0 1.98 0 3.96 0 6 C-3.4019487 8.09350689 -6.05272412 8.17942163 -10 8 C-10.33 6.35 -10.66 4.7 -11 3 C-7.18178484 -0.02823961 -4.81391924 -1.49397494 0 0 Z "
        fill="currentColor" transform="translate(249,115)" />
    <path
        d="M0 0 C2.75998748 1.0872678 3.68303643 2.19877954 5.0625 4.8125 C4.75 7.5625 4.75 7.5625 4.0625 9.8125 C2.3125 10.5625 2.3125 10.5625 0.0625 10.8125 C-2.1875 9.25 -2.1875 9.25 -3.9375 6.8125 C-4.1875 3.5625 -4.1875 3.5625 -3.9375 0.8125 C-1.9375 -0.1875 -1.9375 -0.1875 0 0 Z "
        fill="currentColor" transform="translate(219.9375,105.1875)" />
    <path
        d="M0 0 C1.65 0.33 3.3 0.66 5 1 C5.33 1.99 5.66 2.98 6 4 C4.84338843 6.20807663 3.77322566 8.22677434 2 10 C0.33382885 10.04063832 -1.33388095 10.042721 -3 10 C-3.75 7.8125 -3.75 7.8125 -4 5 C-2.0625 2.1875 -2.0625 2.1875 0 0 Z "
        fill="currentColor" transform="translate(85,108)" />
    <path
        d="M0 0 C2.5 0.125 2.5 0.125 3.5 1.125 C3.54063832 2.79117115 3.542721 4.45888095 3.5 6.125 C-1.25 7.25 -1.25 7.25 -3.5 6.125 C-3.542721 4.45888095 -3.54063832 2.79117115 -3.5 1.125 C-2.5 0.125 -2.5 0.125 0 0 Z "
        fill="currentColor" transform="translate(193.5,156.875)" />
    <path
        d="M0 0 C1.65 0 3.3 0 5 0 C5.66 1.32 6.32 2.64 7 4 C6.01 5.485 6.01 5.485 5 7 C2.375 7.1875 2.375 7.1875 0 7 C-1.125 2.25 -1.125 2.25 0 0 Z "
        fill="currentColor" transform="translate(197,145)" />
    <path
        d="M0 0 C1.67542976 0.28604898 3.34385343 0.61781233 5 1 C5.38218767 2.65614657 5.71395102 4.32457024 6 6 C5 7 5 7 2.5 7.125 C0 7 0 7 -1 6 C-1.125 3.5 -1.125 3.5 -1 1 C-0.67 0.67 -0.34 0.34 0 0 Z "
        fill="currentColor" transform="translate(206,155)" />
</svg>