<?xml version="1.0" encoding="UTF-8"?>
<svg version="1.1" xmlns="http://www.w3.org/2000/svg" width="300" height="300" viewBox="0 0 300 300">
<path d="M0 0 C0.92839188 -0.02613876 1.85678375 -0.05227753 2.81330872 -0.07920837 C5.89385319 -0.15879958 8.97397674 -0.21339028 12.05517578 -0.26098633 C13.66158621 -0.2868151 13.66158621 -0.2868151 15.30044937 -0.31316566 C21.01613409 -0.39936596 26.73163227 -0.46240005 32.44775391 -0.51074219 C37.07653849 -0.55441223 41.7006028 -0.64334135 46.32763672 -0.77734375 C75.2115025 -1.59536412 99.72047714 0.71996665 126.87228394 11.13887024 C127.83233715 11.5069536 128.79239037 11.87503696 129.7815361 12.25427437 C131.57007895 12.95274781 133.35108823 13.67095631 135.12233353 14.41219902 C139.71255188 16.33406973 139.71255188 16.33406973 144.54629517 15.89292908 C146.88329501 14.43348329 149.15783278 12.95220569 151.39111328 11.33666992 C152.28185547 10.71147461 153.17259766 10.0862793 154.09033203 9.44213867 C155.94042526 8.13176409 157.78172143 6.80887594 159.61376953 5.47338867 C164.70534493 1.93492692 168.36435064 -0.19778109 174.65625 0.1940918 C179.50926236 1.18081883 182.71310838 3.27005998 185.56298828 7.40698242 C186.79147433 11.09244056 187.04685702 13.73193565 186.62548828 17.59448242 C186.06861328 18.37823242 185.51173828 19.16198242 184.93798828 19.96948242 C183.36391173 22.39157815 183.36391173 22.39157815 184.09423828 24.34057617 C184.51189453 25.36344727 184.51189453 25.36344727 184.93798828 26.40698242 C188.22085364 34.89127082 188.00125463 46.37187295 184.52392578 54.77807617 C181.19744921 61.50334403 177.07437938 64.94842429 170.62548828 68.59448242 C167.20350231 69.73514441 164.56436359 69.73193506 160.9540863 69.74838257 C160.27254189 69.75276482 159.59099748 69.75714708 158.8888002 69.76166213 C156.59977351 69.77504098 154.3107853 69.78122699 152.02172852 69.78735352 C150.38235806 69.79525541 148.74298933 69.80352441 147.10362244 69.81213379 C141.71379252 69.83835084 136.32395487 69.8536643 130.93408203 69.86791992 C129.07727618 69.87328034 127.22047038 69.87865785 125.36366463 69.88405228 C117.6370419 69.90568338 109.91042125 69.92441811 102.1837759 69.93567467 C91.11991381 69.95189991 80.0564037 69.98504038 68.99267429 70.04207551 C61.20908243 70.08082848 53.42558447 70.10031388 45.64189869 70.10559523 C40.99577512 70.10924227 36.35002698 70.12119384 31.7040081 70.15369797 C27.3282083 70.18387186 22.95300923 70.19005745 18.57712746 70.17831421 C16.97680797 70.17809423 15.37645986 70.1863364 13.77623749 70.20396805 C3.8817201 70.30699487 -4.62875124 69.81916582 -12.27291203 62.86824608 C-18.58293585 56.36485874 -19.87465932 48.74364603 -19.74951172 40.03198242 C-19.76111328 39.22051758 -19.77271484 38.40905273 -19.78466797 37.57299805 C-19.76510396 33.53303084 -19.48312686 30.37716543 -17.76904297 26.68823242 C-17.30884766 25.66729492 -16.84865234 24.64635742 -16.37451172 23.59448242 C-17.6659615 20.59455514 -17.6659615 20.59455514 -19.37451172 17.59448242 C-20.16560469 13.22589121 -19.70833178 10.27496177 -17.74951172 6.28198242 C-12.66529835 0.52879361 -7.2242679 0.11969678 0 0 Z M-1.37451172 35.59448242 C-2.38662938 45.69514012 -2.38662938 45.69514012 0.70995235 49.7427206 C4.20113441 51.960096 6.1544404 52.22060725 10.27406311 52.22267151 C10.92888135 52.2297659 11.58369959 52.23686028 12.2583608 52.24416965 C14.44522323 52.26172537 16.63030238 52.24366048 18.81713867 52.22558594 C20.38772896 52.23072571 21.95831349 52.23800744 23.52888489 52.24726868 C27.78926939 52.26578226 32.04902805 52.25284531 36.30938649 52.23317838 C40.76782412 52.21679296 45.22622207 52.22560448 49.68467712 52.23069763 C57.17066446 52.23521825 64.6564019 52.21934965 72.14233398 52.19140625 C80.79881756 52.15934272 89.45485072 52.15937466 98.11136633 52.17662102 C106.43815199 52.19247973 114.76477241 52.18575756 123.09155083 52.16868401 C126.63576083 52.16180897 130.17983855 52.16285053 133.72404671 52.17022896 C137.89632923 52.17788525 142.06809853 52.1657876 146.2402935 52.13838005 C147.77214408 52.13148861 149.30404252 52.13140641 150.83589172 52.13859558 C152.92580114 52.14727428 155.01412075 52.1313649 157.10389709 52.10914612 C158.27361085 52.1063392 159.4433246 52.10353228 160.64848423 52.1006403 C164.24747817 51.4887301 165.39224952 50.41869861 167.62548828 47.59448242 C169.37084427 44.47644843 169.37084427 44.47644843 168.62548828 35.59448242 C112.52548828 35.59448242 56.42548828 35.59448242 -1.37451172 35.59448242 Z " fill="#F9F9F9" transform="translate(66.37451171875,174.405517578125)"/>
<path d="M0 0 C10.43472371 10.03338819 17.11867697 22.26234026 17.7734375 36.87890625 C17.50760956 42.20328345 15.71747506 45.2965432 12.203125 49.3515625 C7.6315832 53.25409818 4.23083916 53.83393042 -1.69598389 53.81321716 C-2.43696359 53.81845384 -3.17794329 53.82369052 -3.94137692 53.82908589 C-6.42549072 53.84409333 -8.90939866 53.8447912 -11.39355469 53.84545898 C-13.17424874 53.85308006 -14.95493949 53.86150747 -16.73562622 53.87068176 C-21.57462149 53.89264086 -26.41355357 53.90142776 -31.25259304 53.90650821 C-34.27657 53.91015061 -37.30053039 53.91639012 -40.32450104 53.9235096 C-50.87649768 53.94801059 -61.42844512 53.96105705 -71.98046875 53.96459961 C-81.8121174 53.96823368 -91.64345364 53.99811824 -101.47500682 54.04000419 C-109.9184656 54.07471359 -118.3618209 54.09014818 -126.80535054 54.09084564 C-131.84707685 54.09163834 -136.88848511 54.10037353 -141.93013763 54.12884331 C-146.67448059 54.15503445 -151.41824206 54.1572233 -156.16262436 54.14118767 C-157.90084222 54.13937391 -159.63909359 54.14605729 -161.37723923 54.16200638 C-177.20903351 54.29838308 -177.20903351 54.29838308 -182.98228836 49.96574497 C-187.0799796 45.72047521 -188.5871149 41.25090531 -188.921875 35.4140625 C-188.30998952 21.16305228 -180.4489662 8.75394081 -170.3203125 -0.84765625 C-128.59089381 -35.17883139 -41.25117939 -35.24029325 0 0 Z M-160.234375 14.9765625 C-166.39561376 21.61060615 -168.33512528 26.42993876 -170.359375 35.5390625 C-114.259375 35.5390625 -58.159375 35.5390625 -0.359375 35.5390625 C-4.77130788 20.83261955 -10.85196711 12.86616537 -24.234375 5.4140625 C-60.39612203 -13.76866078 -128.99310783 -14.45846439 -160.234375 14.9765625 Z " fill="#F6F6F6" transform="translate(235.359375,79.4609375)"/>
<path d="M0 0 C1.19299223 -0.00679667 1.19299223 -0.00679667 2.41008532 -0.01373065 C5.08396508 -0.02642455 7.75764245 -0.02475108 10.43154907 -0.02310181 C12.3450395 -0.02908395 14.25852751 -0.03588876 16.17201233 -0.04345703 C21.37656273 -0.06115629 26.5810474 -0.06581406 31.78562498 -0.0670886 C36.12717977 -0.0689855 40.46871917 -0.07634062 44.81026804 -0.08343279 C55.05171207 -0.09972928 65.29312092 -0.1046006 75.53457642 -0.10317993 C86.10636568 -0.10197817 96.67795089 -0.123084 107.24968851 -0.15466726 C116.31982555 -0.18080089 125.38989583 -0.19154845 134.46007025 -0.19026911 C139.88004257 -0.18975862 145.29983363 -0.19548993 150.71976852 -0.21662521 C155.816956 -0.23595853 160.9137884 -0.23616571 166.01098824 -0.22159195 C167.88268742 -0.21949664 169.75440855 -0.22424753 171.62607002 -0.23631287 C174.17976294 -0.25170962 176.73222302 -0.24249476 179.28588867 -0.22705078 C180.3990752 -0.24248147 180.3990752 -0.24248147 181.53475034 -0.25822389 C185.10201677 -0.21049066 187.1465712 0.19113633 190.20643044 2.08348656 C193.05489644 5.09821073 193.26992798 7.16552633 193.26992798 11.26742554 C191.68153863 14.84130156 190.5535844 16.07832126 187.26992798 18.26742554 C185.48240306 18.41496728 183.68829958 18.48857774 181.89492798 18.51742554 C174.48429935 18.98679544 168.80023351 21.95999022 162.26992798 25.26742554 C152.37944327 28.56425377 140.86460896 27.26967351 131.64492798 22.76742554 C123.79405549 18.7740221 123.79405549 18.7740221 115.26992798 19.26742554 C111.7911898 20.65728568 108.44079141 22.18199382 105.09024048 23.85726929 C97.43271387 27.68603259 86.21150574 28.04425217 77.95791626 25.57601929 C75.11437028 24.44190661 72.38637174 23.12980696 69.63735962 21.78622437 C64.60946612 19.33582079 60.77428301 17.68093305 55.26992798 19.26742554 C52.07048897 20.65316982 49.02032562 22.17014684 45.96914673 23.85726929 C38.16277474 27.93556203 26.51893536 27.56363518 18.07461548 25.47836304 C14.64918182 24.10609451 11.57463693 22.44627645 8.39492798 20.57992554 C5.09182676 19.19262303 2.76085694 19.02036509 -0.79257202 18.82992554 C-4.75816594 18.59376114 -6.4587252 18.43236184 -9.91757202 16.32992554 C-12.91203439 12.92243388 -12.99943988 10.75688978 -12.73007202 6.26742554 C-10.45268306 -0.03919006 -5.96359615 -0.02473992 0 0 Z " fill="#FAFAFA" transform="translate(59.730072021484375,140.73257446289063)"/>
<path d="M0 0 C5.875 0.875 5.875 0.875 7 2 C7.3125 4.375 7.3125 4.375 7 7 C5.3125 8.9375 5.3125 8.9375 3 10 C0.3125 9.4375 0.3125 9.4375 -2 8 C-3 6.125 -3 6.125 -3 4 C-1.5625 1.75 -1.5625 1.75 0 0 Z " fill="#DCDCDC" transform="translate(169,81)"/>
<path d="M0 0 C2.97 0.495 2.97 0.495 6 1 C6.33 2.98 6.66 4.96 7 7 C5.3125 8.625 5.3125 8.625 3 10 C0.3125 9.4375 0.3125 9.4375 -2 8 C-3 6.125 -3 6.125 -3 4 C-1.5625 1.75 -1.5625 1.75 0 0 Z " fill="#DFDFDF" transform="translate(152,81)"/>
<path d="M0 0 C2.9375 0.1875 2.9375 0.1875 3.9375 1.1875 C4.125 4.125 4.125 4.125 3.9375 7.1875 C1.9375 9.1875 1.9375 9.1875 -0.5625 9.4375 C-3.0625 9.1875 -3.0625 9.1875 -5.0625 7.1875 C-5.3125 4.6875 -5.3125 4.6875 -5.0625 2.1875 C-3.0625 0.1875 -3.0625 0.1875 0 0 Z " fill="#E3E3E3" transform="translate(163.0625,89.8125)"/>
</svg>
